<svg id="Layer_2" data-name="Layer 2" xmlns="http://www.w3.org/2000/svg" viewBox="0 0 940 215.25"><defs><style>.cls-1{fill:#887d72;}</style></defs><path class="cls-1" d="M102.49,148.92c8,0,14.47,7.21,14.47,16.07a16.7,16.7,0,0,1-6.28,13.24l-1.22.93,1.35.74a17.66,17.66,0,0,1,8.88,15.72c0,9.66-7.08,17.51-15.77,17.51H84.34V148.92h18.15M86.83,178.11h15.66c6.61,0,12-5.88,12-13.12s-5.37-13.11-12-13.11H86.83v26.23m0,32.07h17.09c7.32,0,13.28-6.53,13.28-14.56s-6-14.55-13.28-14.55H86.83v29.11m15.66-62.26H83.39a.06.06,0,0,0,0,.06v66.09s0,.06,0,.06h20.53c9.25,0,16.77-8.3,16.77-18.51a18.77,18.77,0,0,0-9.4-16.6A17.62,17.62,0,0,0,118,165c0-9.41-6.94-17.07-15.47-17.07ZM87.83,177.11V152.88h14.66c6.06,0,11,5.43,11,12.11s-4.92,12.12-11,12.12Zm0,32.07V182.07h16.09c6.77,0,12.28,6.08,12.28,13.55s-5.51,13.56-12.28,13.56Z"/><path class="cls-1" d="M166.53,148.91,147,184.85l-.36.67-.12.22v27.39h-2.49v-27.4l-.12-.22-.36-.65-19.49-36h3L144.44,181l.88,1.62.88-1.62,17.38-32.05h2.95m1.59-1H163a.05.05,0,0,0,0,0l-17.65,32.54-17.66-32.54s0,0,0,0h-5.11s0,0,0,0a.06.06,0,0,0,0,.06l20.24,37.33.36.66v28.08s0,.06.05.06h4.39s.05,0,.05-.06V186l.36-.67L168.17,148a.06.06,0,0,0,0-.06.05.05,0,0,0,0,0Z"/><path class="cls-1" d="M229,148a27.8,27.8,0,0,1,12,2.5,27.11,27.11,0,0,1,9,6.88,30.47,30.47,0,0,1,5.76,10.44,44.56,44.56,0,0,1,0,26.4,30.52,30.52,0,0,1-5.76,10.43,27.08,27.08,0,0,1-9,6.88,29.87,29.87,0,0,1-24,0,27,27,0,0,1-9-6.88,30.52,30.52,0,0,1-5.76-10.43,44.35,44.35,0,0,1,0-26.4A30.47,30.47,0,0,1,208,157.36a27.11,27.11,0,0,1,9-6.88,27.75,27.75,0,0,1,12-2.5m0,64.73a26.36,26.36,0,0,0,11.7-2.51,25.18,25.18,0,0,0,8.6-6.84,30.72,30.72,0,0,0,5.27-10.06,43,43,0,0,0,0-24.61,30.82,30.82,0,0,0-5.27-10.06,25.18,25.18,0,0,0-8.6-6.84,28.5,28.5,0,0,0-23.39,0,25.18,25.18,0,0,0-8.6,6.84,30.73,30.73,0,0,0-5.27,10.06,43,43,0,0,0,0,24.61,30.53,30.53,0,0,0,5.27,10.06,25.09,25.09,0,0,0,8.6,6.84A26.32,26.32,0,0,0,229,212.71M229,147a28.64,28.64,0,0,0-12.41,2.59,28,28,0,0,0-9.37,7.14,31.29,31.29,0,0,0-5.95,10.77,45.36,45.36,0,0,0,0,27,31.29,31.29,0,0,0,5.95,10.77,27.91,27.91,0,0,0,9.37,7.14,30.94,30.94,0,0,0,24.83,0,28,28,0,0,0,9.37-7.14,31.29,31.29,0,0,0,5.95-10.77,45.58,45.58,0,0,0,0-27,31.29,31.29,0,0,0-5.95-10.77,28.14,28.14,0,0,0-9.37-7.14A28.69,28.69,0,0,0,229,147Zm0,64.73a25.21,25.21,0,0,1-11.25-2.41,23.77,23.77,0,0,1-8.26-6.57,29.4,29.4,0,0,1-5.1-9.73,42.05,42.05,0,0,1,0-24,29.49,29.49,0,0,1,5.1-9.73,23.88,23.88,0,0,1,8.26-6.57,27.49,27.49,0,0,1,22.51,0,24,24,0,0,1,8.26,6.57,29.47,29.47,0,0,1,5.09,9.73,41.82,41.82,0,0,1,0,24,29.38,29.38,0,0,1-5.09,9.73,23.86,23.86,0,0,1-8.26,6.57A25.22,25.22,0,0,1,229,211.71Z"/><path class="cls-1" d="M287.59,148.92a27.21,27.21,0,0,1,8.08,1,15,15,0,0,1,5.26,2.78,9.85,9.85,0,0,1,2.84,4.07,16.67,16.67,0,0,1,0,10.72,9.67,9.67,0,0,1-2.83,4.11,13,13,0,0,1-2.79,1.79l-2.46,1.2,2.66.66.18.05.56.14a18.79,18.79,0,0,1,7.36,3.72,12.92,12.92,0,0,1,3.82,5.7,24.5,24.5,0,0,1,1.15,7.72,27.81,27.81,0,0,1-1.15,8.07,15.39,15.39,0,0,1-3.87,6.44,18.64,18.64,0,0,1-7.36,4.34,37.13,37.13,0,0,1-11.79,1.6H267.53V148.92h20.06M269,174.15h18.21a32.59,32.59,0,0,0,6.8-.63,14,14,0,0,0,5.07-2.1,9.22,9.22,0,0,0,3.16-3.81,14.78,14.78,0,0,0,0-10.84,9.37,9.37,0,0,0-3.11-3.8,13.45,13.45,0,0,0-5-2.11,33.23,33.23,0,0,0-6.89-.63H269v23.92m0,37.62h18.29a33.5,33.5,0,0,0,10.46-1.43,18.83,18.83,0,0,0,7.09-4,15.12,15.12,0,0,0,4-6.11,22.57,22.57,0,0,0,1.22-7.51,20.09,20.09,0,0,0-1.23-7.26,13,13,0,0,0-4-5.52,18.84,18.84,0,0,0-7.1-3.36,42,42,0,0,0-10.4-1.12H269v36.31m18.64-63.85H266.53v66.15h20.71a38.06,38.06,0,0,0,12.12-1.65,19.69,19.69,0,0,0,7.74-4.58,16.43,16.43,0,0,0,4.11-6.86,28.4,28.4,0,0,0,1.2-8.36,25.22,25.22,0,0,0-1.2-8,13.86,13.86,0,0,0-4.11-6.14,19.72,19.72,0,0,0-7.74-3.93l-.78-.2a13.41,13.41,0,0,0,3-1.92,10.6,10.6,0,0,0,3.13-4.54,17.72,17.72,0,0,0,0-11.39,10.75,10.75,0,0,0-3.13-4.49,15.7,15.7,0,0,0-5.61-3,27.8,27.8,0,0,0-8.38-1.09ZM270,173.15V151.23h17.21a31.66,31.66,0,0,1,6.67.61,12.48,12.48,0,0,1,4.67,1.94,8.38,8.38,0,0,1,2.78,3.4,13.82,13.82,0,0,1,0,10,8.25,8.25,0,0,1-2.82,3.4,13,13,0,0,1-4.71,1.94,31.26,31.26,0,0,1-6.59.61Zm0,37.62V176.46h17.29a40.4,40.4,0,0,1,10.15,1.09,17.8,17.8,0,0,1,6.72,3.16,12,12,0,0,1,3.72,5.11,19.19,19.19,0,0,1,1.16,6.9,21.67,21.67,0,0,1-1.16,7.18,14.19,14.19,0,0,1-3.72,5.72,18.12,18.12,0,0,1-6.72,3.78,32.78,32.78,0,0,1-10.15,1.37Z"/><path class="cls-1" d="M360.55,148.92v1.31H322.62v29.88H354v1.3H322.62v30.36h37.93v1.3H321.2V148.92h39.35m1-1H320.2v66.15h41.35v-3.3H323.62V182.41H355v-3.3H323.62V151.23h37.93v-3.31Z"/><path class="cls-1" d="M389.36,148.92a36.78,36.78,0,0,1,10.92,1.42,18.74,18.74,0,0,1,7.15,3.94,15,15,0,0,1,4,6,25.89,25.89,0,0,1,0,16,15,15,0,0,1-4,6.07,19.17,19.17,0,0,1-7.16,4,24.84,24.84,0,0,1-2.45.65l-1.4.31.77,1.21,15.53,24.52h-1.83l-15.83-25-.33-.52-.62.06c-1.49.15-3.09.23-4.75.23h-17.6v25.23h-1.43V148.92h19m-17.6,37.52h17.52a36.73,36.73,0,0,0,9.6-1.12,18.38,18.38,0,0,0,6.92-3.46,14,14,0,0,0,4.14-5.8,21.34,21.34,0,0,0,1.31-7.73,21.12,21.12,0,0,0-1.31-7.69,14.11,14.11,0,0,0-4.14-5.74,18.88,18.88,0,0,0-6.87-3.5,34.55,34.55,0,0,0-9.57-1.17h-17.6v36.21m17.6-38.52h-20v66.15h3.43V188.84h16.6c1.72,0,3.34-.08,4.85-.23l16.13,25.46h4.19L398,188a24.86,24.86,0,0,0,2.55-.68,20.09,20.09,0,0,0,7.53-4.21,15.84,15.84,0,0,0,4.24-6.47,26.81,26.81,0,0,0,0-16.68,16,16,0,0,0-4.24-6.43,19.61,19.61,0,0,0-7.53-4.15,37.33,37.33,0,0,0-11.22-1.47Zm-16.6,37.52V151.23h16.6a33.68,33.68,0,0,1,9.29,1.13,17.84,17.84,0,0,1,6.51,3.31A13.06,13.06,0,0,1,409,161a19.91,19.91,0,0,1,1.24,7.32A20.26,20.26,0,0,1,409,175.7a13,13,0,0,1-3.85,5.39,17.22,17.22,0,0,1-6.55,3.26,35.15,35.15,0,0,1-9.33,1.09Z"/><path class="cls-1" d="M448.35,148a27.75,27.75,0,0,1,12,2.5,27.11,27.11,0,0,1,9,6.88,30.47,30.47,0,0,1,5.76,10.44,44.35,44.35,0,0,1,0,26.4,30.52,30.52,0,0,1-5.76,10.43,27,27,0,0,1-9,6.88,29.87,29.87,0,0,1-24,0,27,27,0,0,1-9-6.88,30.52,30.52,0,0,1-5.76-10.43,44.56,44.56,0,0,1,0-26.4,30.47,30.47,0,0,1,5.76-10.44,27.11,27.11,0,0,1,9-6.88,27.76,27.76,0,0,1,12-2.5m0,64.73A26.32,26.32,0,0,0,460,210.2a25.09,25.09,0,0,0,8.6-6.84,30.53,30.53,0,0,0,5.27-10.06,43,43,0,0,0,0-24.61,30.63,30.63,0,0,0-5.27-10.06,25.18,25.18,0,0,0-8.6-6.84,28.5,28.5,0,0,0-23.39,0,25.18,25.18,0,0,0-8.6,6.84,30.73,30.73,0,0,0-5.27,10.06,43,43,0,0,0,0,24.61,30.53,30.53,0,0,0,5.27,10.06,25.18,25.18,0,0,0,8.6,6.84,26.33,26.33,0,0,0,11.7,2.51m0-65.73a28.65,28.65,0,0,0-12.42,2.59,28.14,28.14,0,0,0-9.37,7.14,31.29,31.29,0,0,0-5.95,10.77,45.58,45.58,0,0,0,0,27,31.29,31.29,0,0,0,5.95,10.77,28,28,0,0,0,9.37,7.14,30.94,30.94,0,0,0,24.83,0,28,28,0,0,0,9.37-7.14,31.29,31.29,0,0,0,5.95-10.77,45.36,45.36,0,0,0,0-27,31.29,31.29,0,0,0-5.95-10.77,28.14,28.14,0,0,0-9.37-7.14A28.64,28.64,0,0,0,448.35,147Zm0,64.73a25.22,25.22,0,0,1-11.26-2.41,23.86,23.86,0,0,1-8.26-6.57,29.19,29.19,0,0,1-5.09-9.73,41.82,41.82,0,0,1,0-24,29.29,29.29,0,0,1,5.09-9.73,24,24,0,0,1,8.26-6.57,27.49,27.49,0,0,1,22.51,0,24,24,0,0,1,8.26,6.57A29.49,29.49,0,0,1,473,169a42.05,42.05,0,0,1,0,24,29.4,29.4,0,0,1-5.1,9.73,23.86,23.86,0,0,1-8.26,6.57,25.21,25.21,0,0,1-11.25,2.41Z"/><path class="cls-1" d="M488.26,148.92v64.15h-1.42V148.92h1.42m1-1h-3.42v66.15h3.42V147.92Z"/><path class="cls-1" d="M544.82,148.92a33.49,33.49,0,0,1,10.88,1.55,18.75,18.75,0,0,1,7.16,4.26,16.29,16.29,0,0,1,4,6.37,26.75,26.75,0,0,1,0,16.32,16.27,16.27,0,0,1-4,6.41,19.33,19.33,0,0,1-7.17,4.31l-.72.23-.08,0-1.24.39.69,1.1L569,213.07h-6.36l-14.53-22.94-.31-.5-.58,0c-.88.05-1.67.07-2.42.07H529.61v23.34h-5.36V148.92h20.57M529.61,184h15.12a29.33,29.33,0,0,0,8.12-1,14.5,14.5,0,0,0,5.6-3,11.42,11.42,0,0,0,3.19-4.71,19.39,19.39,0,0,0,0-12.05,11.39,11.39,0,0,0-3.19-4.77,14.38,14.38,0,0,0-5.56-2.95,28.85,28.85,0,0,0-8.07-1H529.61V184m15.21-36.06H523.25v66.15h7.36V190.73h14.21c.85,0,1.67,0,2.47-.07l14.82,23.41h8.73l-15.65-24.72.84-.27a20.16,20.16,0,0,0,7.53-4.54,17.16,17.16,0,0,0,4.24-6.8,27.73,27.73,0,0,0,0-17,17.2,17.2,0,0,0-4.24-6.75,19.7,19.7,0,0,0-7.53-4.49,34.37,34.37,0,0,0-11.21-1.61ZM530.61,183v-27.4h14.21a27.61,27.61,0,0,1,7.79.94,13.38,13.38,0,0,1,5.18,2.74,10.39,10.39,0,0,1,2.91,4.35,18.47,18.47,0,0,1,0,11.39,10.42,10.42,0,0,1-2.91,4.3,13.52,13.52,0,0,1-5.23,2.74,28.06,28.06,0,0,1-7.83.94Z"/><path class="cls-1" d="M619.83,148.92v5.47H583.62V178h29.62v5.46H583.62v24.12h36.21v5.46H578.26V148.92h41.57m1-1H577.26v66.15h43.57v-7.46H584.62V184.49h29.62V177H584.62V155.39h36.21v-7.47Z"/><path class="cls-1" d="M664,148.92l28.81,64.15h-6l-9.41-20.95-.26-.59H643.81l-.26.59-9.41,20.95h-6l28.81-64.15H664M646.31,186h28.31l-.63-1.41-12.61-28.09-.91-2-.92,2-12.61,28.09-.63,1.41m18.35-38.05h-8.39l-29.7,66.15h8.21l9.68-21.54h32l9.68,21.54h8.21l-29.7-66.15ZM647.85,185l12.62-28.09L673.08,185Z"/><path class="cls-1" d="M706.29,148.92v58.69h36.55v5.46H700.93V148.92h5.36m1-1h-7.36v66.15h43.91v-7.46H707.29V147.92Z"/><path class="cls-1" d="M786.92,148.92v5.47H761.5v58.68h-5.36V154.39H730.72v-5.47h56.2m1-1h-58.2v7.47h25.42v58.68h7.36V155.39h25.42v-7.47Z"/><path class="cls-1" d="M859.23,148.92l-28.84,34.42-.24.28v29.45h-5.36V183.62l-.23-.28-28.84-34.42h7.06l23.93,28.49.76.91.77-.91,23.92-28.49h7.07m2.14-1H851.7l-24.23,28.85-24.22-28.85h-9.68L823.79,184v30.09h7.36V184l30.22-36.06Z"/><path class="cls-1" d="M27.74,3.48c8.48,0,15.87,1.22,22,3.62A39.68,39.68,0,0,1,64.81,17.26a41.36,41.36,0,0,1,8.76,15.61,68.39,68.39,0,0,1,2.84,20.25A68.58,68.58,0,0,1,73.57,73.3,41.27,41.27,0,0,1,64.81,89,39.68,39.68,0,0,1,49.72,99.14c-6.11,2.4-13.5,3.62-22,3.62H2V3.48H27.74M11.27,93.19H28a50.29,50.29,0,0,0,17.72-2.82A31.17,31.17,0,0,0,58,82.3a32.55,32.55,0,0,0,7-12.76,57.71,57.71,0,0,0,2.21-16.42A56.78,56.78,0,0,0,64.93,36.7,33.23,33.23,0,0,0,58,24a30.84,30.84,0,0,0-12.18-8.15,49.86,49.86,0,0,0-17.66-2.82H11.27V93.19M27.74,2.48H1V103.76H27.74q13,0,22.34-3.69A40.48,40.48,0,0,0,65.55,89.65a42.09,42.09,0,0,0,9-16.06,69.13,69.13,0,0,0,2.88-20.47,68.94,68.94,0,0,0-2.88-20.54,42.17,42.17,0,0,0-9-16A40.48,40.48,0,0,0,50.08,6.17Q40.71,2.48,27.74,2.48ZM12.27,92.19V14.05H28.13a48.67,48.67,0,0,1,17.3,2.75,29.74,29.74,0,0,1,11.79,7.89A32.15,32.15,0,0,1,64,37a55.78,55.78,0,0,1,2.16,16.13A56.71,56.71,0,0,1,64,69.25a31.37,31.37,0,0,1-6.76,12.37,29.84,29.84,0,0,1-11.86,7.82A49.14,49.14,0,0,1,28,92.19Z"/><path class="cls-1" d="M154.91,3.48v9.43H99.47V48h45.35v9.43H99.47V93.33h55.44v9.43H90.2V3.48h64.71m1-1H89.2V103.76h66.71V92.33H100.47V58.47h45.35V47H100.47V13.91h55.44V2.48Z"/><path class="cls-1" d="M201.65,2a70.07,70.07,0,0,1,9.76.72,36.3,36.3,0,0,1,9.88,2.88,34.08,34.08,0,0,1,9,6.05A29.71,29.71,0,0,1,237,21.06l-8,5.16a25.84,25.84,0,0,0-10-10.65c-4.46-2.53-10.25-3.82-17.21-3.82-7.67,0-13.72,1.42-18,4.22a14.05,14.05,0,0,0-6.61,12.41,12.12,12.12,0,0,0,3,8.56,20.21,20.21,0,0,0,7.58,5,54.65,54.65,0,0,0,10.41,2.8c3.8.67,7.75,1.4,11.71,2.17a119.86,119.86,0,0,1,11.64,2.87,34,34,0,0,1,9.93,4.77,23.22,23.22,0,0,1,6.91,8c1.74,3.26,2.63,7.51,2.63,12.62,0,8.82-3.06,15.94-9.09,21.17s-15.42,7.93-27.79,7.93a56.71,56.71,0,0,1-16.29-2.27,37.79,37.79,0,0,1-13-6.7,29.43,29.43,0,0,1-8.43-11.06,35.57,35.57,0,0,1-2.87-14.43h9.32a29.66,29.66,0,0,0,1.92,9.13,21.49,21.49,0,0,0,5.78,8.27,27.55,27.55,0,0,0,9.72,5.41A44,44,0,0,0,204,94.49a50.89,50.89,0,0,0,10.3-1,27.77,27.77,0,0,0,8.83-3.39,18.45,18.45,0,0,0,6.16-6,16.55,16.55,0,0,0,2.32-8.92,15,15,0,0,0-3-9.67,19.89,19.89,0,0,0-7.58-5.64,48.1,48.1,0,0,0-10.44-3.1c-4-.76-7.94-1.51-11.73-2.25S191,52.8,187.23,51.79a32.87,32.87,0,0,1-9.92-4.35,22.15,22.15,0,0,1-6.9-7.34c-1.74-3-2.62-6.91-2.62-11.72a23.73,23.73,0,0,1,2.26-10.21,24.43,24.43,0,0,1,6.55-8.34,32.88,32.88,0,0,1,10.63-5.68A45.71,45.71,0,0,1,201.65,2m0-1A46.54,46.54,0,0,0,186.91,3.2,33.78,33.78,0,0,0,176,9.06a25.16,25.16,0,0,0-6.81,8.68,24.66,24.66,0,0,0-2.36,10.64q0,7.53,2.75,12.23a23.1,23.1,0,0,0,7.21,7.66A33.76,33.76,0,0,0,187,52.76q5.78,1.52,11.73,2.68t11.73,2.24a46.56,46.56,0,0,1,10.23,3,18.76,18.76,0,0,1,7.21,5.35,14,14,0,0,1,2.75,9,15.62,15.62,0,0,1-2.16,8.4,17.54,17.54,0,0,1-5.84,5.71,26.54,26.54,0,0,1-8.52,3.26,49.54,49.54,0,0,1-10.09,1,43,43,0,0,1-13.5-1.88,26.46,26.46,0,0,1-9.37-5.21,20.26,20.26,0,0,1-5.5-7.89,28.57,28.57,0,0,1-1.9-9.76H162.47a37,37,0,0,0,2.94,15.84A30.57,30.57,0,0,0,174.13,96a38.6,38.6,0,0,0,13.3,6.87A56.89,56.89,0,0,0,204,105.21q19,0,28.44-8.18t9.44-21.92q0-8-2.75-13.09a24,24,0,0,0-7.21-8.32,34.73,34.73,0,0,0-10.22-4.92A119.49,119.49,0,0,0,210,45.89q-6-1.16-11.73-2.17A54.8,54.8,0,0,1,188,41a19.16,19.16,0,0,1-7.21-4.71,11.12,11.12,0,0,1-2.75-7.88,13,13,0,0,1,6.16-11.58q6.17-4.05,17.43-4.05,10.23,0,16.71,3.69a25.13,25.13,0,0,1,10.16,11.21l9.7-6.22A31.24,31.24,0,0,0,231,10.94a35,35,0,0,0-9.3-6.22,37.39,37.39,0,0,0-10.16-3,70.44,70.44,0,0,0-9.9-.73Z"/><path class="cls-1" d="M263.82,3.48v99.28h-9.27V3.48h9.27m1-1H253.55V103.76h11.27V2.48Z"/><path class="cls-1" d="M322.88,2a51,51,0,0,1,11.57,1.21,38.18,38.18,0,0,1,9.13,3.31,33.13,33.13,0,0,1,7.13,5,36.48,36.48,0,0,1,5,5.67l-5.66,7.2a33.29,33.29,0,0,0-10.23-9c-4.45-2.54-10.15-3.82-16.94-3.82a35.19,35.19,0,0,0-15,3.13,33.16,33.16,0,0,0-11.34,8.65,38.89,38.89,0,0,0-7.14,13.14,53.68,53.68,0,0,0-2.47,16.59,53.59,53.59,0,0,0,2.47,16.59,38.7,38.7,0,0,0,7.14,13.14,32.19,32.19,0,0,0,11.35,8.58,35.88,35.88,0,0,0,15,3.06,39.56,39.56,0,0,0,11-1.42,30.4,30.4,0,0,0,8.39-3.74A23.78,23.78,0,0,0,348.18,84a22,22,0,0,0,3.43-6.21l.06-.16V61.09H327V51.66h33.91V81a41.76,41.76,0,0,1-4.79,8.44,33.37,33.37,0,0,1-7.7,7.51,38.83,38.83,0,0,1-11,5.29,49.35,49.35,0,0,1-14.58,2,45.43,45.43,0,0,1-18.66-3.75A41.14,41.14,0,0,1,290,90a47.54,47.54,0,0,1-9.11-16.16,64.19,64.19,0,0,1-3.22-20.73,64,64,0,0,1,3.22-20.8A47.78,47.78,0,0,1,290,16.23,41.14,41.14,0,0,1,304.22,5.78,45.43,45.43,0,0,1,322.88,2m0-1a46.21,46.21,0,0,0-19.07,3.84,41.87,41.87,0,0,0-14.61,10.7A48.56,48.56,0,0,0,279.89,32a64.81,64.81,0,0,0-3.27,21.12,65,65,0,0,0,3.27,21.05,48.33,48.33,0,0,0,9.31,16.5,41.87,41.87,0,0,0,14.61,10.7,46.21,46.21,0,0,0,19.07,3.84,50,50,0,0,0,14.88-2A40,40,0,0,0,349,97.76,34.17,34.17,0,0,0,357,90a42.84,42.84,0,0,0,5-8.83V50.66H326V62.09h24.64V77.43a21,21,0,0,1-3.28,5.93,23,23,0,0,1-5.64,5.14,29.9,29.9,0,0,1-8.12,3.61,38.36,38.36,0,0,1-10.75,1.38,34.68,34.68,0,0,1-14.61-3,31,31,0,0,1-11-8.32,37.65,37.65,0,0,1-6.95-12.8,52.54,52.54,0,0,1-2.42-16.28,52.58,52.58,0,0,1,2.42-16.28A37.84,37.84,0,0,1,297.26,24a31.8,31.8,0,0,1,11-8.39,33.94,33.94,0,0,1,14.61-3q10,0,16.45,3.69A32,32,0,0,1,350,26.06L357,17.24a37.1,37.1,0,0,0-5.57-6.44,34.28,34.28,0,0,0-7.34-5.14,39.76,39.76,0,0,0-9.37-3.4A51.84,51.84,0,0,0,322.88,1Z"/><path class="cls-1" d="M452.94,3.48v99.28h-9.75l-57.5-81.61-1.82-2.58v84.19H374.6V3.48h9.75l57.5,81.61,1.82,2.58V3.48h9.27m1-1H442.67v82l-57.8-82H373.6V103.76h11.27v-82l57.8,82h11.27V2.48Z"/><path class="cls-1" d="M512.27,1.89a56.79,56.79,0,0,1,10.62,1,37.18,37.18,0,0,1,9.77,3.31,34.55,34.55,0,0,1,8.46,6.12,36,36,0,0,1,6.39,8.63l-2.88,1.82A33.61,33.61,0,0,0,532.72,10C527.34,6.66,520.46,5,512.27,5A40.59,40.59,0,0,0,499,6.89a26.17,26.17,0,0,0-9.12,5.2,20.24,20.24,0,0,0-5.24,7.38A22.23,22.23,0,0,0,483,27.8c0,4.37,1,7.86,3.11,10.4a20.53,20.53,0,0,0,8,5.86,46.16,46.16,0,0,0,11,3c4,.63,8.17,1.26,12.39,1.88s8.33,1.42,12.3,2.37a35.06,35.06,0,0,1,10.45,4.29,21.83,21.83,0,0,1,7.27,7.55c1.82,3.11,2.74,7.32,2.74,12.51,0,8.82-2.84,15.83-8.44,20.81s-14.76,7.56-27.12,7.56a54.36,54.36,0,0,1-16.09-2.27,35.16,35.16,0,0,1-12.49-6.68,29,29,0,0,1-8-11,37.51,37.51,0,0,1-2.68-14.46h3.27a38.5,38.5,0,0,0,2.33,12,27.93,27.93,0,0,0,6.73,10.27A30.45,30.45,0,0,0,499,98.63,47.38,47.38,0,0,0,514.63,101a53.41,53.41,0,0,0,15.1-1.85,26.67,26.67,0,0,0,10.07-5.27,19.45,19.45,0,0,0,5.52-8.16,30.27,30.27,0,0,0,1.63-10c0-4.72-1-8.57-3.07-11.43a21,21,0,0,0-8-6.68,42,42,0,0,0-11-3.49c-4-.71-8.13-1.4-12.42-2s-8.35-1.35-12.33-2.16a37.12,37.12,0,0,1-10.47-3.73,19.79,19.79,0,0,1-7.23-6.82c-1.82-2.86-2.73-6.75-2.73-11.55a25.25,25.25,0,0,1,2.07-10.16,23,23,0,0,1,6.1-8.18A29.76,29.76,0,0,1,498,3.93a45.43,45.43,0,0,1,14.23-2m0-1A45.91,45.91,0,0,0,497.72,3,30.56,30.56,0,0,0,487.24,8.7a23.77,23.77,0,0,0-6.36,8.54,26,26,0,0,0-2.16,10.56q0,7.53,2.88,12.08A20.64,20.64,0,0,0,489.2,47,37.65,37.65,0,0,0,500,50.88q6,1.23,12.38,2.17t12.39,2a41.09,41.09,0,0,1,10.75,3.4,20,20,0,0,1,7.6,6.37Q546,68.89,546,75.69a29.11,29.11,0,0,1-1.57,9.7,18.38,18.38,0,0,1-5.24,7.74,25.35,25.35,0,0,1-9.7,5.06A52,52,0,0,1,514.63,100a46.14,46.14,0,0,1-15.34-2.31,29.44,29.44,0,0,1-10.87-6.52,26.65,26.65,0,0,1-6.49-9.91,37.66,37.66,0,0,1-2.3-12.66h-5.24a39.19,39.19,0,0,0,2.75,15.85,29.91,29.91,0,0,0,8.26,11.43,36.2,36.2,0,0,0,12.85,6.87,55.23,55.23,0,0,0,16.38,2.31q19,0,27.78-7.81t8.78-21.56q0-8.1-2.88-13a22.8,22.8,0,0,0-7.6-7.89A36.06,36.06,0,0,0,530,50.37q-6-1.44-12.38-2.39T505.19,46.1a44.43,44.43,0,0,1-10.75-3,19.54,19.54,0,0,1-7.6-5.57Q484,34,484,27.8a21.14,21.14,0,0,1,1.57-8,19.17,19.17,0,0,1,5-7,25.19,25.19,0,0,1,8.78-5,39.63,39.63,0,0,1,13-1.88q12.06,0,19.92,4.92a32.64,32.64,0,0,1,12.06,13.31l4.58-2.89a37.86,37.86,0,0,0-7-9.7,35.18,35.18,0,0,0-8.71-6.29,38.06,38.06,0,0,0-10-3.4,58,58,0,0,0-10.81-1Z"/><path class="cls-1" d="M643.25,3.33V6.4H602.49v96.22h-3.24V6.4H558.62V3.33h84.63m1-1H557.62V7.4h40.63v96.22h5.24V7.4h40.76V2.33Z"/><path class="cls-1" d="M733.68,3.33V61.51c0,8.26-.8,15.23-2.39,20.71a29.71,29.71,0,0,1-7.15,13,27,27,0,0,1-12,6.83,73.63,73.63,0,0,1-34.59,0,27,27,0,0,1-12-6.83,30.13,30.13,0,0,1-7.22-13c-1.62-5.48-2.45-12.44-2.45-20.7V3.33h3.24V61.51a72.46,72.46,0,0,0,2.07,18.79,28.92,28.92,0,0,0,6.46,12.28,23.63,23.63,0,0,0,11.28,6.58A61.24,61.24,0,0,0,694.84,101a60.52,60.52,0,0,0,15.86-1.84A24.1,24.1,0,0,0,722,92.59a28.11,28.11,0,0,0,6.47-12.3,75,75,0,0,0,2-18.78V3.33h3.24m1-1h-5.24V61.51a73.37,73.37,0,0,1-2,18.52,27,27,0,0,1-6.23,11.87,22.93,22.93,0,0,1-10.81,6.29A58.89,58.89,0,0,1,694.84,100a59.78,59.78,0,0,1-15.67-1.81,22.55,22.55,0,0,1-10.81-6.29A27.78,27.78,0,0,1,662.14,80a70.81,70.81,0,0,1-2-18.52V2.33h-5.24V61.51q0,12.59,2.49,21a31,31,0,0,0,7.47,13.39A27.93,27.93,0,0,0,677.27,103a74.86,74.86,0,0,0,35.13,0,27.93,27.93,0,0,0,12.45-7.09,30.46,30.46,0,0,0,7.4-13.39q2.43-8.38,2.43-21V2.33Z"/><path class="cls-1" d="M769.8,3.33c8.39,0,15.71,1.27,21.77,3.76a39.74,39.74,0,0,1,14.9,10.37,43,43,0,0,1,8.64,15.7A66.53,66.53,0,0,1,818,53a66.47,66.47,0,0,1-2.84,19.81,43,43,0,0,1-8.64,15.7,39.63,39.63,0,0,1-14.9,10.37c-6.05,2.49-13.38,3.76-21.77,3.76H747V3.33H769.8M750.19,99.55h19.87a55.33,55.33,0,0,0,19.56-3.17,36.06,36.06,0,0,0,14-9.31A38.94,38.94,0,0,0,812,72.3,63.81,63.81,0,0,0,814.71,53,63.18,63.18,0,0,0,812,33.72,39.1,39.1,0,0,0,803.63,19,36.94,36.94,0,0,0,789.7,9.65,53.61,53.61,0,0,0,770.2,6.4h-20V99.55M769.8,2.33H746V103.62H769.8q12.84,0,22.15-3.84a40.39,40.39,0,0,0,15.27-10.63,43.8,43.8,0,0,0,8.85-16.06A67.41,67.41,0,0,0,819,53a67.48,67.48,0,0,0-2.88-20.12,43.88,43.88,0,0,0-8.85-16.06A40.5,40.5,0,0,0,792,6.17q-9.3-3.84-22.15-3.84ZM751.19,98.55V7.4h19a52.4,52.4,0,0,1,19.13,3.18A35.74,35.74,0,0,1,802.9,19.7,38.05,38.05,0,0,1,811,34a62.15,62.15,0,0,1,2.69,19A62.73,62.73,0,0,1,811,72a37.93,37.93,0,0,1-8.12,14.4,35,35,0,0,1-13.63,9,53.93,53.93,0,0,1-19.21,3.11Z"/><path class="cls-1" d="M835,3.33v99.29h-3.25V3.33H835m1-1h-5.25V103.62H836V2.33Z"/><path class="cls-1" d="M893.39,1.89A43.4,43.4,0,0,1,912,5.77a41.22,41.22,0,0,1,14,10.67,47.93,47.93,0,0,1,8.86,16.16A65.16,65.16,0,0,1,938,53a65.14,65.14,0,0,1-3.09,20.37,47.93,47.93,0,0,1-8.86,16.16,41.32,41.32,0,0,1-14,10.67,46.71,46.71,0,0,1-37.28,0,41.32,41.32,0,0,1-14-10.67,47.74,47.74,0,0,1-8.85-16.16A64.85,64.85,0,0,1,848.78,53a64.87,64.87,0,0,1,3.1-20.38,47.74,47.74,0,0,1,8.85-16.16,41.22,41.22,0,0,1,14-10.67,43.4,43.4,0,0,1,18.64-3.88m0,99.11a39.87,39.87,0,0,0,17.68-3.79,37.76,37.76,0,0,0,13-10.33,46.34,46.34,0,0,0,8-15.23A62.33,62.33,0,0,0,934.76,53,62.35,62.35,0,0,0,932,34.3a46.63,46.63,0,0,0-8-15.23,37.88,37.88,0,0,0-13-10.33,43.11,43.11,0,0,0-35.35,0,37.91,37.91,0,0,0-13,10.33,46.53,46.53,0,0,0-8,15.23A62,62,0,0,0,852,53a61.92,61.92,0,0,0,2.74,18.67,46.24,46.24,0,0,0,8,15.23,37.7,37.7,0,0,0,13,10.33A39.93,39.93,0,0,0,893.39,101m0-100.11a44.29,44.29,0,0,0-19.07,4A42.09,42.09,0,0,0,860,15.79a48.59,48.59,0,0,0-9,16.5A65.64,65.64,0,0,0,847.78,53a65.73,65.73,0,0,0,3.15,20.69,48.64,48.64,0,0,0,9,16.49,42.25,42.25,0,0,0,14.35,10.93,47.79,47.79,0,0,0,38.14,0,42.15,42.15,0,0,0,14.35-10.93,48.83,48.83,0,0,0,9.05-16.49A66,66,0,0,0,939,53a65.92,65.92,0,0,0-3.14-20.69,48.78,48.78,0,0,0-9.05-16.5A42,42,0,0,0,912.46,4.87a44.29,44.29,0,0,0-19.07-4Zm0,99.11a38.66,38.66,0,0,1-17.23-3.69,36.59,36.59,0,0,1-12.65-10.06,45.1,45.1,0,0,1-7.8-14.9A60.88,60.88,0,0,1,853,53a61,61,0,0,1,2.69-18.38,45.1,45.1,0,0,1,7.8-14.9A36.59,36.59,0,0,1,876.16,9.64a42.1,42.1,0,0,1,34.47,0A36.65,36.65,0,0,1,923.27,19.7a45.1,45.1,0,0,1,7.8,14.9A61,61,0,0,1,933.76,53a60.88,60.88,0,0,1-2.69,18.37,45.1,45.1,0,0,1-7.8,14.9,36.65,36.65,0,0,1-12.64,10.06A38.73,38.73,0,0,1,893.39,100Z"/></svg>