<svg id="Layer_2" data-name="Layer 2" xmlns="http://www.w3.org/2000/svg" viewBox="0 0 940 215.25"><defs><style>.cls-1{fill:#887d72;}</style></defs><path class="cls-1" d="M111.29,179A17.62,17.62,0,0,0,118,165c0-9.41-6.94-17.07-15.47-17.07H83.39a.06.06,0,0,0,0,.06v66.09s0,.06,0,.06h20.53c9.25,0,16.77-8.3,16.77-18.51A18.77,18.77,0,0,0,111.29,179ZM87.83,152.88h14.66c6.06,0,11,5.43,11,12.11s-4.92,12.12-11,12.12H87.83Zm16.09,56.3H87.83V182.07h16.09c6.77,0,12.28,6.08,12.28,13.55S110.69,209.18,103.92,209.18Z"/><path class="cls-1" d="M163,147.91a.05.05,0,0,0,0,0l-17.65,32.54-17.66-32.54s0,0,0,0h-5.11s0,0,0,0a.06.06,0,0,0,0,.06l20.24,37.33.36.66v28.08s0,.06.05.06h4.38a.05.05,0,0,0,.06-.06V186l.36-.67L168.17,148a.06.06,0,0,0,0-.06.05.05,0,0,0,0,0Z"/><path class="cls-1" d="M250.82,156.71a28.14,28.14,0,0,0-9.37-7.14,31.05,31.05,0,0,0-24.83,0,28,28,0,0,0-9.37,7.14,31.29,31.29,0,0,0-5.95,10.77,45.36,45.36,0,0,0,0,27,31.29,31.29,0,0,0,5.95,10.77,27.91,27.91,0,0,0,9.37,7.14,30.94,30.94,0,0,0,24.83,0,28,28,0,0,0,9.37-7.14,31.29,31.29,0,0,0,5.95-10.77,45.58,45.58,0,0,0,0-27A31.29,31.29,0,0,0,250.82,156.71ZM253.64,193a29.38,29.38,0,0,1-5.09,9.73,23.86,23.86,0,0,1-8.26,6.57,27.49,27.49,0,0,1-22.51,0,23.77,23.77,0,0,1-8.26-6.57,29.4,29.4,0,0,1-5.1-9.73,42.05,42.05,0,0,1,0-24,29.49,29.49,0,0,1,5.1-9.73,23.88,23.88,0,0,1,8.26-6.57,27.49,27.49,0,0,1,22.51,0,24,24,0,0,1,8.26,6.57,29.47,29.47,0,0,1,5.09,9.73,41.82,41.82,0,0,1,0,24Z"/><path class="cls-1" d="M307.1,178.45a19.72,19.72,0,0,0-7.74-3.93l-.78-.2a13.41,13.41,0,0,0,3-1.92,10.6,10.6,0,0,0,3.13-4.54,17.72,17.72,0,0,0,0-11.39,10.75,10.75,0,0,0-3.13-4.49,15.7,15.7,0,0,0-5.61-3,27.8,27.8,0,0,0-8.38-1.09H266.53v66.15h20.71a38.06,38.06,0,0,0,12.12-1.65,19.69,19.69,0,0,0,7.74-4.58,16.43,16.43,0,0,0,4.11-6.86,28.4,28.4,0,0,0,1.2-8.36,25.22,25.22,0,0,0-1.2-8A13.86,13.86,0,0,0,307.1,178.45Zm-19.94-27.22a31.66,31.66,0,0,1,6.67.61,12.48,12.48,0,0,1,4.67,1.94,8.38,8.38,0,0,1,2.78,3.4,13.82,13.82,0,0,1,0,10,8.25,8.25,0,0,1-2.82,3.4,13,13,0,0,1-4.71,1.94,31.26,31.26,0,0,1-6.59.61H270V151.23Zm20.67,48.67a14.19,14.19,0,0,1-3.72,5.72,18.12,18.12,0,0,1-6.72,3.78,32.78,32.78,0,0,1-10.15,1.37H270V176.46h17.29a40.4,40.4,0,0,1,10.15,1.09,17.8,17.8,0,0,1,6.72,3.16,12,12,0,0,1,3.72,5.11,19.19,19.19,0,0,1,1.16,6.9A21.67,21.67,0,0,1,307.83,199.9Z"/><polygon class="cls-1" points="320.2 147.92 320.2 214.07 323.62 214.07 361.55 214.07 361.55 210.76 323.62 210.76 323.62 182.41 354.95 182.41 354.95 179.11 323.62 179.11 323.62 151.23 361.55 151.23 361.55 147.92 323.62 147.92 320.2 147.92"/><path class="cls-1" d="M400.58,187.33a20.09,20.09,0,0,0,7.53-4.21,15.84,15.84,0,0,0,4.24-6.47,26.81,26.81,0,0,0,0-16.68,16,16,0,0,0-4.24-6.43,19.61,19.61,0,0,0-7.53-4.15,37.3,37.3,0,0,0-11.21-1.47h-20v66.15h3.43V188.84h16.61c1.71,0,3.33-.08,4.84-.23l16.13,25.46h4.19L398,188A24.86,24.86,0,0,0,400.58,187.33Zm-11.3-1.89H372.76V151.23h16.61a33.65,33.65,0,0,1,9.28,1.13,17.84,17.84,0,0,1,6.51,3.31A13.06,13.06,0,0,1,409,161a19.91,19.91,0,0,1,1.24,7.32A20.26,20.26,0,0,1,409,175.7a13,13,0,0,1-3.85,5.39,17.22,17.22,0,0,1-6.55,3.26A35.15,35.15,0,0,1,389.28,185.44Z"/><path class="cls-1" d="M470.13,156.71a28.14,28.14,0,0,0-9.37-7.14,31.05,31.05,0,0,0-24.83,0,28.14,28.14,0,0,0-9.37,7.14,31.29,31.29,0,0,0-5.95,10.77,45.58,45.58,0,0,0,0,27,31.29,31.29,0,0,0,5.95,10.77,28,28,0,0,0,9.37,7.14,30.94,30.94,0,0,0,24.83,0,28,28,0,0,0,9.37-7.14,31.29,31.29,0,0,0,5.95-10.77,45.36,45.36,0,0,0,0-27A31.29,31.29,0,0,0,470.13,156.71ZM473,193a29.4,29.4,0,0,1-5.1,9.73,23.86,23.86,0,0,1-8.26,6.57,27.49,27.49,0,0,1-22.51,0,23.86,23.86,0,0,1-8.26-6.57,29.19,29.19,0,0,1-5.09-9.73,41.82,41.82,0,0,1,0-24,29.29,29.29,0,0,1,5.09-9.73,24,24,0,0,1,8.26-6.57,27.49,27.49,0,0,1,22.51,0,24,24,0,0,1,8.26,6.57A29.49,29.49,0,0,1,473,169a42.05,42.05,0,0,1,0,24Z"/><rect class="cls-1" x="485.84" y="147.92" width="3.42" height="66.15"/><path class="cls-1" d="M556,189.08a20.16,20.16,0,0,0,7.53-4.54,17.16,17.16,0,0,0,4.24-6.8,27.73,27.73,0,0,0,0-17,17.2,17.2,0,0,0-4.24-6.75,19.7,19.7,0,0,0-7.53-4.49,34.37,34.37,0,0,0-11.21-1.61H523.25v66.15h7.36V190.73h14.21c.85,0,1.67,0,2.47-.07l14.82,23.41h8.73l-15.65-24.72Zm-11.3-6.1H530.61v-27.4h14.21a27.61,27.61,0,0,1,7.79.94,13.38,13.38,0,0,1,5.18,2.74,10.39,10.39,0,0,1,2.91,4.35,18.47,18.47,0,0,1,0,11.39,10.42,10.42,0,0,1-2.91,4.3,13.52,13.52,0,0,1-5.23,2.74A28.06,28.06,0,0,1,544.73,183Z"/><polygon class="cls-1" points="582.91 147.92 577.26 147.92 577.26 214.07 582.91 214.07 584.62 214.07 620.83 214.07 620.83 206.61 584.62 206.61 584.62 184.49 614.24 184.49 614.24 177.03 584.62 177.03 584.62 155.39 620.83 155.39 620.83 147.92 584.62 147.92 582.91 147.92"/><path class="cls-1" d="M664.49,147.92h-8.22l-29.7,66.15h8.21l9.68-21.54h32l9.68,21.54h8.21l-29.7-66.15ZM647.85,185l12.62-28.09L673.08,185Z"/><polygon class="cls-1" points="707.29 147.92 699.93 147.92 699.93 214.07 705.58 214.07 707.29 214.07 743.84 214.07 743.84 206.61 707.29 206.61 707.29 147.92"/><polygon class="cls-1" points="755.14 147.92 729.72 147.92 729.72 155.39 755.14 155.39 755.14 214.07 762.5 214.07 762.5 155.39 787.92 155.39 787.92 147.92 762.5 147.92 755.14 147.92"/><polygon class="cls-1" points="861.37 147.92 851.7 147.92 827.47 176.77 803.25 147.92 793.57 147.92 823.79 183.98 823.79 214.07 831.15 214.07 831.15 183.98 861.37 147.92"/><path class="cls-1" d="M1,2.48H27.74q13,0,22.34,3.69A40.48,40.48,0,0,1,65.55,16.59a42.17,42.17,0,0,1,9,16,68.94,68.94,0,0,1,2.88,20.54,69.13,69.13,0,0,1-2.88,20.47,42.09,42.09,0,0,1-9,16.06,40.48,40.48,0,0,1-15.47,10.42q-9.37,3.69-22.34,3.69H1ZM28,92.19a49.14,49.14,0,0,0,17.36-2.75,29.84,29.84,0,0,0,11.86-7.82A31.37,31.37,0,0,0,64,69.25a56.71,56.71,0,0,0,2.16-16.13A55.78,55.78,0,0,0,64,37a32.15,32.15,0,0,0-6.76-12.3A29.74,29.74,0,0,0,45.43,16.8a48.67,48.67,0,0,0-17.3-2.75H12.27V92.19Z"/><path class="cls-1" d="M89.2,2.48h66.71V13.91H100.47V47h45.35V58.47H100.47V92.33h55.44v11.43H89.2Z"/><path class="cls-1" d="M166.79,28.38a24.66,24.66,0,0,1,2.36-10.64A25.16,25.16,0,0,1,176,9.06,33.78,33.78,0,0,1,186.91,3.2,46.54,46.54,0,0,1,201.65,1a70.44,70.44,0,0,1,9.9.73,37.39,37.39,0,0,1,10.16,3,35,35,0,0,1,9.3,6.22,31.24,31.24,0,0,1,7.21,10.49l-9.7,6.22a25.13,25.13,0,0,0-10.16-11.21q-6.48-3.69-16.71-3.69-11.27,0-17.43,4.05a13,13,0,0,0-6.16,11.58,11.12,11.12,0,0,0,2.75,7.88A19.16,19.16,0,0,0,188,41a54.8,54.8,0,0,0,10.23,2.75q5.76,1,11.73,2.17a119.49,119.49,0,0,1,11.73,2.89,34.73,34.73,0,0,1,10.22,4.92A24,24,0,0,1,239.14,62q2.75,5.13,2.75,13.09,0,13.76-9.44,21.92T204,105.21a56.89,56.89,0,0,1-16.58-2.32A38.6,38.6,0,0,1,174.13,96a30.57,30.57,0,0,1-8.72-11.43,37,37,0,0,1-2.94-15.84h11.27a28.57,28.57,0,0,0,1.9,9.76,20.26,20.26,0,0,0,5.5,7.89,26.46,26.46,0,0,0,9.37,5.21A43,43,0,0,0,204,93.49a49.54,49.54,0,0,0,10.09-1,26.54,26.54,0,0,0,8.52-3.26,17.54,17.54,0,0,0,5.84-5.71,15.62,15.62,0,0,0,2.16-8.4,14,14,0,0,0-2.75-9,18.76,18.76,0,0,0-7.21-5.35,46.56,46.56,0,0,0-10.23-3q-5.76-1.08-11.73-2.24T187,52.76a33.76,33.76,0,0,1-10.22-4.49,23.1,23.1,0,0,1-7.21-7.66Q166.8,35.9,166.79,28.38Z"/><path class="cls-1" d="M253.55,2.48h11.27V103.76H253.55Z"/><path class="cls-1" d="M287.89,53.12a52.54,52.54,0,0,0,2.42,16.28,37.65,37.65,0,0,0,6.95,12.8,31,31,0,0,0,11,8.32,34.68,34.68,0,0,0,14.61,3,38.36,38.36,0,0,0,10.75-1.38,29.9,29.9,0,0,0,8.12-3.61,23,23,0,0,0,5.64-5.14,21,21,0,0,0,3.28-5.93V62.09H326V50.66h35.91V81.19A42.84,42.84,0,0,1,357,90,34.17,34.17,0,0,1,349,97.76a40,40,0,0,1-11.27,5.42,50,50,0,0,1-14.88,2,46.21,46.21,0,0,1-19.07-3.84,41.87,41.87,0,0,1-14.61-10.7,48.33,48.33,0,0,1-9.31-16.5,65,65,0,0,1-3.27-21.05A64.81,64.81,0,0,1,279.89,32a48.56,48.56,0,0,1,9.31-16.43,41.87,41.87,0,0,1,14.61-10.7A46.21,46.21,0,0,1,322.88,1a51.84,51.84,0,0,1,11.8,1.23,39.76,39.76,0,0,1,9.37,3.4,34.28,34.28,0,0,1,7.34,5.14A37.1,37.1,0,0,1,357,17.24L350,26.06a32,32,0,0,0-10.68-9.76q-6.48-3.69-16.45-3.69a33.94,33.94,0,0,0-14.61,3,31.8,31.8,0,0,0-11,8.39,37.84,37.84,0,0,0-6.95,12.8A52.58,52.58,0,0,0,287.89,53.12Z"/><path class="cls-1" d="M442.67,103.76l-57.8-82v82H373.6V2.48h11.27l57.8,82v-82h11.27V103.76Z"/><path class="cls-1" d="M478.72,27.8a26,26,0,0,1,2.16-10.56,23.77,23.77,0,0,1,6.36-8.54A30.56,30.56,0,0,1,497.72,3,45.91,45.91,0,0,1,512.27.89a58,58,0,0,1,10.81,1,38.06,38.06,0,0,1,10,3.4,35.18,35.18,0,0,1,8.71,6.29,37.86,37.86,0,0,1,7,9.7l-4.58,2.89a32.64,32.64,0,0,0-12.06-13.31Q524.33,6,512.27,6a39.63,39.63,0,0,0-13,1.88,25.19,25.19,0,0,0-8.78,5,19.17,19.17,0,0,0-5,7,21.14,21.14,0,0,0-1.57,8q0,6.22,2.88,9.77a19.54,19.54,0,0,0,7.6,5.57,44.43,44.43,0,0,0,10.75,3q6,.94,12.39,1.88T530,50.37a36.06,36.06,0,0,1,10.75,4.41,22.8,22.8,0,0,1,7.6,7.89q2.88,4.92,2.88,13,0,13.75-8.78,21.56t-27.78,7.81a55.23,55.23,0,0,1-16.38-2.31,36.2,36.2,0,0,1-12.85-6.87,29.91,29.91,0,0,1-8.26-11.43,39.19,39.19,0,0,1-2.75-15.85h5.24a37.66,37.66,0,0,0,2.3,12.66,26.65,26.65,0,0,0,6.49,9.91,29.44,29.44,0,0,0,10.87,6.52A46.14,46.14,0,0,0,514.63,100a52,52,0,0,0,14.81-1.81,25.35,25.35,0,0,0,9.7-5.06,18.38,18.38,0,0,0,5.24-7.74,29.11,29.11,0,0,0,1.57-9.7q0-6.8-2.88-10.85a20,20,0,0,0-7.6-6.37,41.09,41.09,0,0,0-10.75-3.4q-6-1.08-12.39-2T500,50.88A37.65,37.65,0,0,1,489.2,47a20.64,20.64,0,0,1-7.6-7.16Q478.72,35.32,478.72,27.8Z"/><path class="cls-1" d="M557.62,2.33h86.63V7.4H603.49v96.22h-5.24V7.4H557.62Z"/><path class="cls-1" d="M694.84,100a58.89,58.89,0,0,0,15.59-1.81,22.93,22.93,0,0,0,10.81-6.29A27,27,0,0,0,727.47,80a73.37,73.37,0,0,0,2-18.52V2.33h5.24V61.51q0,12.59-2.43,21a30.46,30.46,0,0,1-7.4,13.39A27.93,27.93,0,0,1,712.4,103a74.86,74.86,0,0,1-35.13,0,27.93,27.93,0,0,1-12.45-7.09,31,31,0,0,1-7.47-13.39q-2.49-8.38-2.49-21V2.33h5.25V61.51a70.86,70.86,0,0,0,2,18.52,27.78,27.78,0,0,0,6.22,11.87,22.55,22.55,0,0,0,10.81,6.29A59.78,59.78,0,0,0,694.84,100Z"/><path class="cls-1" d="M746,2.33H769.8q12.84,0,22.15,3.84A40.5,40.5,0,0,1,807.22,16.8a43.88,43.88,0,0,1,8.85,16.06A67.48,67.48,0,0,1,819,53a67.41,67.41,0,0,1-2.88,20.11,43.8,43.8,0,0,1-8.85,16.06A40.39,40.39,0,0,1,792,99.78q-9.3,3.84-22.15,3.84H746Zm24.11,96.22a53.93,53.93,0,0,0,19.21-3.11,35,35,0,0,0,13.63-9A37.93,37.93,0,0,0,811,72a62.73,62.73,0,0,0,2.69-19A62.15,62.15,0,0,0,811,34,38.05,38.05,0,0,0,802.9,19.7a35.74,35.74,0,0,0-13.57-9.12A52.4,52.4,0,0,0,770.2,7.4h-19V98.55Z"/><path class="cls-1" d="M830.74,2.33H836V103.62h-5.25Z"/><path class="cls-1" d="M847.78,53a65.64,65.64,0,0,1,3.15-20.69,48.59,48.59,0,0,1,9-16.5A42.09,42.09,0,0,1,874.32,4.87a47.68,47.68,0,0,1,38.14,0,42,42,0,0,1,14.35,10.92,48.78,48.78,0,0,1,9.05,16.5A65.92,65.92,0,0,1,939,53a66,66,0,0,1-3.14,20.69,48.83,48.83,0,0,1-9.05,16.49,42.15,42.15,0,0,1-14.35,10.93,47.79,47.79,0,0,1-38.14,0A42.25,42.25,0,0,1,860,90.16a48.64,48.64,0,0,1-9-16.49A65.73,65.73,0,0,1,847.78,53ZM853,53a60.88,60.88,0,0,0,2.69,18.37,45.1,45.1,0,0,0,7.8,14.9,36.59,36.59,0,0,0,12.65,10.06,42.1,42.1,0,0,0,34.47,0,36.65,36.65,0,0,0,12.64-10.06,45.1,45.1,0,0,0,7.8-14.9A60.88,60.88,0,0,0,933.76,53a61,61,0,0,0-2.69-18.38,45.1,45.1,0,0,0-7.8-14.9A36.65,36.65,0,0,0,910.63,9.64a42.1,42.1,0,0,0-34.47,0A36.59,36.59,0,0,0,863.51,19.7a45.1,45.1,0,0,0-7.8,14.9A61,61,0,0,0,853,53Z"/></svg>