<?xml version="1.0" encoding="UTF-8"?>
<svg id="Layer_2" data-name="Layer 2" xmlns="http://www.w3.org/2000/svg" viewBox="0 0 1920 1080">
  <defs>
    <style>
      .cls-1 {
        fill: #887d72;
      }
    </style>
  </defs>
  <g>
    <path class="cls-1" d="M613.08,602.26c3.89-2.7,6.45-7.2,6.45-12.29,0-8.25-6.71-14.96-14.96-14.96h-18.47s-.05.02-.05.05v57.9s.02.05.05.05h19.85c8.94,0,16.22-7.27,16.22-16.22,0-6.38-3.71-11.9-9.09-14.54ZM590.39,579.35h14.18c5.85,0,10.61,4.76,10.61,10.62s-4.76,10.62-10.61,10.62h-14.18v-21.23ZM605.95,628.68h-15.56v-23.75h15.56c6.55,0,11.87,5.33,11.87,11.88s-5.33,11.87-11.87,11.87Z"/>
    <path class="cls-1" d="M663.1,575.01s-.04,0-.04.03l-17.07,28.5-17.08-28.5s-.03-.03-.04-.03h-4.94s-.04.01-.04.03,0,.04,0,.05l19.58,32.7.34.57v24.61s.02.05.05.05h4.24s.05-.02.05-.05v-24.6l.35-.58,19.58-32.7s0-.04,0-.05c0-.02-.03-.03-.05-.03h-4.94Z"/>
    <path class="cls-1" d="M748.02,582.71c-2.51-2.65-5.53-4.73-9.07-6.25-3.53-1.52-7.53-2.28-12-2.28s-8.47.76-12,2.28c-3.53,1.52-6.55,3.6-9.06,6.25-2.51,2.65-4.43,5.79-5.75,9.44-1.32,3.64-1.99,7.59-1.99,11.84s.66,8.2,1.99,11.84c1.32,3.64,3.24,6.79,5.75,9.44,2.51,2.65,5.53,4.73,9.06,6.25,3.53,1.52,7.53,2.28,12,2.28s8.47-.76,12-2.28c3.53-1.52,6.55-3.6,9.07-6.25,2.51-2.65,4.43-5.79,5.75-9.44,1.32-3.64,1.99-7.59,1.99-11.84s-.66-8.2-1.99-11.84c-1.32-3.64-3.24-6.79-5.75-9.44ZM750.76,614.5c-1.13,3.26-2.77,6.1-4.93,8.53-2.15,2.43-4.82,4.35-7.99,5.75-3.17,1.41-6.8,2.11-10.89,2.11s-7.71-.7-10.89-2.11c-3.17-1.41-5.84-3.32-7.99-5.75-2.15-2.43-3.8-5.27-4.93-8.53-1.13-3.26-1.7-6.76-1.7-10.51s.57-7.26,1.7-10.51c1.13-3.26,2.77-6.1,4.93-8.53,2.15-2.43,4.81-4.35,7.99-5.75,3.17-1.41,6.8-2.11,10.89-2.11s7.71.7,10.89,2.11c3.17,1.41,5.84,3.33,7.99,5.75,2.15,2.43,3.79,5.27,4.93,8.53,1.13,3.26,1.7,6.76,1.7,10.51s-.57,7.26-1.7,10.51Z"/>
    <path class="cls-1" d="M802.46,601.75c-1.88-1.49-4.38-2.64-7.49-3.44-.24-.06-.5-.12-.75-.17,1.1-.49,2.08-1.04,2.9-1.69,1.41-1.1,2.41-2.43,3.02-3.97.61-1.54.91-3.2.91-4.97s-.3-3.49-.91-5.01c-.61-1.52-1.61-2.83-3.02-3.93-1.41-1.1-3.22-1.97-5.42-2.61-2.21-.63-4.91-.95-8.11-.95h-20.37v57.95h20.04c4.69,0,8.6-.48,11.71-1.45,3.12-.96,5.62-2.3,7.49-4.01,1.88-1.71,3.2-3.71,3.97-6,.77-2.29,1.16-4.73,1.16-7.33s-.39-4.94-1.16-7.04c-.77-2.1-2.1-3.89-3.97-5.38ZM783.17,577.91c2.48,0,4.64.18,6.46.54,1.82.36,3.32.92,4.51,1.7,1.19.77,2.08,1.77,2.69,2.98.61,1.21.91,2.68.91,4.39s-.3,3.17-.91,4.39c-.61,1.21-1.52,2.21-2.73,2.98-1.21.77-2.73,1.34-4.55,1.7-1.82.36-3.95.54-6.38.54h-16.64v-19.21h16.64ZM803.16,620.55c-.75,1.93-1.95,3.6-3.6,5.01-1.66,1.41-3.82,2.51-6.5,3.31-2.68.8-5.95,1.2-9.81,1.2h-16.72v-30.05h16.72c3.86,0,7.13.32,9.81.95,2.68.64,4.84,1.56,6.5,2.77,1.66,1.21,2.86,2.71,3.6,4.47.75,1.77,1.12,3.78,1.12,6.04s-.37,4.36-1.12,6.29Z"/>
    <polygon class="cls-1" points="815.12 575.01 815.12 632.97 818.43 632.97 855.11 632.97 855.11 630.07 818.43 630.07 818.43 605.23 848.73 605.23 848.73 602.33 818.43 602.33 818.43 577.91 855.11 577.91 855.11 575.01 818.43 575.01 815.12 575.01"/>
    <path class="cls-1" d="M892.86,609.54c2.98-.88,5.41-2.11,7.29-3.68,1.88-1.57,3.24-3.46,4.1-5.67.85-2.21,1.28-4.64,1.28-7.29s-.43-5.15-1.28-7.33c-.86-2.18-2.22-4.06-4.1-5.63-1.88-1.57-4.3-2.79-7.29-3.64-2.98-.85-6.6-1.28-10.85-1.28h-19.37v57.95h3.31v-22.1h16.06c1.66,0,3.22-.07,4.69-.2l15.59,22.31h4.06l-15.96-22.83c.86-.17,1.69-.37,2.46-.6ZM881.93,607.88h-15.98v-29.97h16.06c3.48,0,6.47.33,8.98.99,2.51.66,4.61,1.63,6.29,2.9,1.68,1.27,2.92,2.83,3.73,4.68.8,1.85,1.2,3.99,1.2,6.42s-.4,4.58-1.2,6.46c-.8,1.88-2.04,3.45-3.73,4.72-1.68,1.27-3.79,2.22-6.33,2.86-2.54.63-5.55.95-9.02.95Z"/>
    <path class="cls-1" d="M960.13,582.71c-2.51-2.65-5.53-4.73-9.07-6.25-3.53-1.52-7.53-2.28-12-2.28s-8.47.76-12,2.28c-3.53,1.52-6.55,3.6-9.07,6.25-2.51,2.65-4.43,5.79-5.75,9.44-1.32,3.64-1.99,7.59-1.99,11.84s.66,8.2,1.99,11.84c1.33,3.64,3.24,6.79,5.75,9.44,2.51,2.65,5.53,4.73,9.07,6.25,3.53,1.52,7.53,2.28,12,2.28s8.47-.76,12-2.28c3.53-1.52,6.55-3.6,9.07-6.25,2.51-2.65,4.43-5.79,5.75-9.44,1.32-3.64,1.99-7.59,1.99-11.84s-.66-8.2-1.99-11.84c-1.32-3.64-3.24-6.79-5.75-9.44ZM962.86,614.5c-1.13,3.26-2.77,6.1-4.93,8.53-2.15,2.43-4.82,4.35-7.99,5.75-3.17,1.41-6.8,2.11-10.89,2.11s-7.71-.7-10.89-2.11c-3.17-1.41-5.84-3.32-7.99-5.75-2.15-2.43-3.8-5.27-4.93-8.53-1.13-3.26-1.7-6.76-1.7-10.51s.56-7.26,1.7-10.51c1.13-3.26,2.77-6.1,4.93-8.53,2.15-2.43,4.81-4.35,7.99-5.75,3.17-1.41,6.8-2.11,10.89-2.11s7.71.7,10.89,2.11c3.17,1.41,5.84,3.33,7.99,5.75,2.15,2.43,3.79,5.27,4.93,8.53,1.13,3.26,1.7,6.76,1.7,10.51s-.57,7.26-1.7,10.51Z"/>
    <rect class="cls-1" x="975.32" y="575.01" width="3.31" height="57.95"/>
    <path class="cls-1" d="M1043.2,611.07c2.98-.96,5.41-2.29,7.29-3.97,1.88-1.68,3.24-3.67,4.1-5.96.86-2.29,1.28-4.76,1.28-7.41s-.43-5.19-1.28-7.45c-.86-2.26-2.22-4.24-4.1-5.92-1.88-1.68-4.31-2.99-7.29-3.93-2.98-.94-6.6-1.41-10.85-1.41h-20.86v57.95h7.12v-20.45h13.74c.82,0,1.61-.02,2.39-.06l14.34,20.51h8.44l-15.14-21.66c.27-.08.55-.16.81-.24ZM1032.28,605.73h-13.66v-24.01h13.74c2.98,0,5.49.28,7.53.83,2.04.55,3.71,1.35,5.01,2.4,1.3,1.05,2.24,2.32,2.82,3.81.58,1.49.87,3.15.87,4.97s-.29,3.55-.87,5.01c-.58,1.46-1.52,2.72-2.82,3.77-1.3,1.05-2.98,1.85-5.05,2.4-2.07.55-4.59.83-7.58.83Z"/>
    <polygon class="cls-1" points="1069.2 575.01 1063.74 575.01 1063.74 632.97 1069.2 632.97 1070.85 632.97 1105.87 632.97 1105.87 626.43 1070.85 626.43 1070.85 607.05 1099.5 607.05 1099.5 600.51 1070.85 600.51 1070.85 581.55 1105.87 581.55 1105.87 575.01 1070.85 575.01 1069.2 575.01"/>
    <path class="cls-1" d="M1148.1,575.01h-7.95l-28.73,57.95h7.95l9.36-18.88h30.96l9.36,18.88h7.95l-28.73-57.95h-.17ZM1132.01,607.47l12.2-24.6,12.2,24.6h-24.39Z"/>
    <polygon class="cls-1" points="1189.49 575.01 1182.37 575.01 1182.37 632.97 1187.83 632.97 1189.49 632.97 1224.84 632.97 1224.84 626.43 1189.49 626.43 1189.49 575.01"/>
    <polygon class="cls-1" points="1235.77 575.01 1211.18 575.01 1211.18 581.55 1235.77 581.55 1235.77 632.97 1242.89 632.97 1242.89 581.55 1267.48 581.55 1267.48 575.01 1242.89 575.01 1235.77 575.01"/>
    <polygon class="cls-1" points="1338.51 575.01 1329.15 575.01 1305.72 600.28 1282.29 575.01 1272.94 575.01 1302.16 606.61 1302.16 632.97 1309.28 632.97 1309.28 606.6 1338.51 575.01"/>
  </g>
  <g>
    <path class="cls-1" d="M506.41,447.6h25.86c8.37,0,15.57,1.08,21.61,3.23,6.04,2.15,11.03,5.2,14.96,9.13,3.93,3.93,6.82,8.6,8.68,14.01,1.86,5.41,2.79,11.41,2.79,18s-.93,12.48-2.79,17.94c-1.86,5.45-4.75,10.14-8.68,14.07-3.93,3.93-8.92,6.97-14.96,9.13-6.04,2.15-13.25,3.23-21.61,3.23h-25.86v-88.73ZM532.53,526.19c6.51,0,12.11-.8,16.79-2.41,4.69-1.6,8.51-3.89,11.47-6.84,2.96-2.96,5.13-6.57,6.53-10.84,1.39-4.27,2.09-8.98,2.09-14.13s-.7-9.95-2.09-14.13c-1.39-4.18-3.57-7.77-6.53-10.77-2.96-3-6.76-5.3-11.41-6.91-4.65-1.6-10.23-2.41-16.73-2.41h-15.34v68.45h15.21Z"/>
    <path class="cls-1" d="M591.72,447.6h64.52v10.01h-53.62v29.03h43.86v10.01h-43.86v29.66h53.62v10.01h-64.52v-88.73Z"/>
    <path class="cls-1" d="M666.76,470.29c0-3.3.76-6.4,2.28-9.32,1.52-2.92,3.72-5.45,6.59-7.61,2.87-2.15,6.4-3.87,10.58-5.13,4.18-1.27,8.94-1.9,14.26-1.9,3.04,0,6.23.21,9.57.63,3.34.42,6.61,1.29,9.82,2.6,3.21,1.31,6.21,3.13,9,5.45,2.79,2.33,5.11,5.39,6.97,9.19l-9.38,5.45c-2.37-4.39-5.64-7.67-9.82-9.82-4.18-2.16-9.57-3.23-16.16-3.23-7.27,0-12.89,1.18-16.86,3.55-3.97,2.37-5.96,5.75-5.96,10.14,0,2.87.89,5.18,2.66,6.91,1.77,1.73,4.1,3.11,6.97,4.12,2.87,1.01,6.17,1.82,9.89,2.41,3.72.59,7.5,1.23,11.34,1.9,3.84.68,7.62,1.52,11.34,2.54,3.72,1.01,7.01,2.45,9.89,4.31,2.87,1.86,5.2,4.29,6.97,7.29,1.78,3,2.66,6.83,2.66,11.47,0,8.03-3.04,14.43-9.13,19.2-6.08,4.77-15.25,7.16-27.51,7.16-5.75,0-11.09-.68-16.03-2.03-4.94-1.35-9.23-3.36-12.87-6.02-3.63-2.66-6.44-6-8.43-10.01-1.99-4.01-2.94-8.64-2.85-13.88h10.9c.08,3.04.7,5.89,1.84,8.56,1.14,2.66,2.92,4.97,5.32,6.91,2.41,1.95,5.43,3.47,9.06,4.56,3.63,1.1,7.98,1.65,13.06,1.65,3.38,0,6.63-.29,9.76-.89,3.13-.59,5.87-1.54,8.24-2.85,2.37-1.31,4.25-2.98,5.64-5.01,1.39-2.03,2.09-4.48,2.09-7.35,0-3.3-.89-5.94-2.66-7.92-1.77-1.98-4.1-3.55-6.97-4.69-2.87-1.14-6.17-2.03-9.89-2.66-3.72-.63-7.5-1.29-11.34-1.96-3.85-.68-7.63-1.46-11.34-2.35-3.72-.89-7.01-2.2-9.89-3.93-2.87-1.73-5.2-3.97-6.97-6.72-1.77-2.75-2.66-6.32-2.66-10.71Z"/>
    <path class="cls-1" d="M750.67,447.6h10.9v88.73h-10.9v-88.73Z"/>
    <path class="cls-1" d="M783.87,491.96c0,5.16.78,9.91,2.34,14.26,1.56,4.35,3.8,8.09,6.72,11.22,2.91,3.13,6.46,5.56,10.65,7.29,4.18,1.73,8.89,2.6,14.13,2.6,3.89,0,7.35-.4,10.39-1.2,3.04-.8,5.66-1.86,7.86-3.17,2.2-1.31,4.01-2.81,5.45-4.5,1.44-1.69,2.49-3.42,3.17-5.2v-13.44h-23.83v-10.01h34.73v26.75c-1.18,2.62-2.79,5.2-4.82,7.73-2.03,2.54-4.58,4.8-7.67,6.78-3.09,1.99-6.72,3.57-10.9,4.75-4.18,1.18-8.98,1.77-14.39,1.77-6.76,0-12.91-1.12-18.44-3.36-5.54-2.24-10.25-5.36-14.13-9.38-3.89-4.01-6.89-8.83-9-14.45-2.11-5.62-3.17-11.77-3.17-18.44s1.06-12.93,3.17-18.51c2.11-5.58,5.11-10.37,9-14.39,3.89-4.01,8.6-7.14,14.13-9.38,5.53-2.24,11.68-3.36,18.44-3.36,4.22,0,8.03.36,11.41,1.08,3.38.72,6.4,1.71,9.06,2.98,2.66,1.27,5.03,2.77,7.1,4.5,2.07,1.73,3.87,3.61,5.39,5.64l-6.72,7.73c-2.71-3.55-6.15-6.4-10.33-8.56-4.18-2.15-9.49-3.23-15.91-3.23-5.24,0-9.95.89-14.13,2.66-4.18,1.77-7.73,4.23-10.65,7.35-2.92,3.13-5.16,6.87-6.72,11.22-1.56,4.35-2.34,9.11-2.34,14.26Z"/>
    <path class="cls-1" d="M933.57,536.33l-55.9-71.87v71.87h-10.9v-88.73h10.9l55.9,71.87v-71.87h10.9v88.73h-10.9Z"/>
    <g>
      <path class="cls-1" d="M968.43,469.78c0-3.3.7-6.38,2.09-9.25,1.39-2.87,3.44-5.37,6.15-7.48,2.7-2.11,6.08-3.78,10.14-5.01,4.06-1.22,8.75-1.84,14.07-1.84,3.55,0,7.03.3,10.46.89,3.42.59,6.66,1.58,9.7,2.98,3.04,1.39,5.85,3.23,8.43,5.51,2.58,2.28,4.84,5.11,6.78,8.49l-4.44,2.54c-2.71-4.9-6.59-8.79-11.66-11.66-5.07-2.87-11.49-4.31-19.27-4.31-4.9,0-9.09.55-12.55,1.65-3.47,1.1-6.3,2.56-8.49,4.37-2.2,1.82-3.8,3.87-4.82,6.15-1.01,2.28-1.52,4.61-1.52,6.97,0,3.63.93,6.49,2.79,8.56,1.86,2.07,4.31,3.7,7.35,4.88,3.04,1.18,6.51,2.05,10.39,2.6,3.89.55,7.88,1.1,11.98,1.65,4.1.55,8.09,1.25,11.98,2.09,3.89.85,7.35,2.14,10.39,3.87,3.04,1.73,5.49,4.04,7.35,6.91,1.86,2.87,2.79,6.68,2.79,11.41,0,8.03-2.83,14.32-8.49,18.89-5.66,4.56-14.62,6.84-26.87,6.84-5.75,0-11.03-.68-15.84-2.03-4.82-1.35-8.96-3.36-12.42-6.02-3.47-2.66-6.13-6-7.98-10.01-1.86-4.01-2.75-8.64-2.66-13.88h5.07c.08,4.06.82,7.75,2.22,11.09,1.39,3.34,3.49,6.23,6.27,8.68,2.79,2.45,6.29,4.35,10.52,5.7,4.22,1.35,9.17,2.03,14.83,2.03s10.44-.53,14.32-1.58c3.89-1.06,7.01-2.54,9.38-4.44,2.37-1.9,4.06-4.16,5.07-6.78,1.01-2.62,1.52-5.45,1.52-8.49,0-3.97-.93-7.14-2.79-9.51-1.86-2.37-4.31-4.22-7.35-5.58-3.04-1.35-6.51-2.34-10.39-2.98-3.89-.63-7.88-1.22-11.98-1.78-4.1-.55-8.09-1.18-11.98-1.9-3.89-.72-7.35-1.84-10.39-3.36-3.04-1.52-5.49-3.61-7.35-6.27-1.86-2.66-2.79-6.19-2.79-10.58Z"/>
      <path class="cls-1" d="M1044.74,447.47h83.78v4.44h-39.42v84.29h-5.07v-84.29h-39.29v-4.44Z"/>
      <path class="cls-1" d="M1177.45,533.03c5.83,0,10.86-.53,15.08-1.58,4.23-1.06,7.71-2.89,10.46-5.51,2.75-2.62,4.75-6.08,6.02-10.39,1.27-4.31,1.9-9.72,1.9-16.23v-51.84h5.07v51.84c0,7.35-.78,13.48-2.34,18.38-1.56,4.9-3.95,8.81-7.16,11.72-3.21,2.92-7.22,4.99-12.04,6.21-4.82,1.22-10.48,1.84-16.99,1.84s-12.17-.61-16.99-1.84c-4.82-1.22-8.83-3.3-12.04-6.21-3.21-2.92-5.62-6.82-7.22-11.72-1.61-4.9-2.41-11.03-2.41-18.38v-51.84h5.07v51.84c0,6.51.65,11.91,1.96,16.23,1.31,4.31,3.32,7.78,6.02,10.39,2.7,2.62,6.19,4.46,10.46,5.51,4.27,1.06,9.32,1.58,15.15,1.58Z"/>
      <path class="cls-1" d="M1226.88,447.47h23.07c8.28,0,15.42,1.12,21.42,3.36,6,2.24,10.92,5.35,14.77,9.32,3.84,3.97,6.7,8.66,8.56,14.07,1.86,5.41,2.79,11.28,2.79,17.62s-.93,12.21-2.79,17.62c-1.86,5.41-4.71,10.1-8.56,14.07-3.85,3.97-8.77,7.08-14.77,9.32-6,2.24-13.14,3.36-21.42,3.36h-23.07v-88.73ZM1250.2,531.77c7.1,0,13.29-.91,18.57-2.73,5.28-1.82,9.68-4.46,13.18-7.92,3.5-3.46,6.12-7.67,7.86-12.61,1.73-4.94,2.6-10.5,2.6-16.67s-.87-11.7-2.6-16.61c-1.73-4.9-4.35-9.08-7.86-12.55-3.51-3.46-7.88-6.13-13.12-7.99-5.24-1.86-11.41-2.79-18.51-2.79h-18.38v79.86h18.25Z"/>
      <path class="cls-1" d="M1308.89,447.47h5.07v88.73h-5.07v-88.73Z"/>
      <path class="cls-1" d="M1325.37,491.84c0-6.51,1.01-12.55,3.04-18.13,2.03-5.58,4.94-10.39,8.75-14.45,3.8-4.06,8.43-7.24,13.88-9.57,5.45-2.32,11.6-3.49,18.44-3.49s12.99,1.16,18.44,3.49c5.45,2.33,10.08,5.51,13.88,9.57,3.8,4.06,6.72,8.87,8.75,14.45,2.03,5.58,3.04,11.62,3.04,18.13s-1.01,12.55-3.04,18.13c-2.03,5.58-4.94,10.39-8.75,14.45-3.8,4.06-8.43,7.25-13.88,9.57-5.45,2.32-11.6,3.49-18.44,3.49s-12.99-1.16-18.44-3.49c-5.45-2.32-10.08-5.51-13.88-9.57s-6.72-8.87-8.75-14.45c-2.03-5.58-3.04-11.62-3.04-18.13ZM1330.44,491.84c0,5.75.87,11.11,2.6,16.1,1.73,4.99,4.25,9.34,7.54,13.06,3.3,3.72,7.37,6.66,12.23,8.81,4.86,2.15,10.41,3.23,16.67,3.23s11.81-1.08,16.67-3.23c4.86-2.15,8.94-5.09,12.23-8.81,3.3-3.72,5.81-8.07,7.54-13.06,1.73-4.99,2.6-10.35,2.6-16.1s-.87-11.11-2.6-16.1c-1.73-4.98-4.25-9.34-7.54-13.06-3.3-3.72-7.37-6.65-12.23-8.81-4.86-2.15-10.42-3.23-16.67-3.23s-11.81,1.08-16.67,3.23c-4.86,2.16-8.94,5.09-12.23,8.81-3.3,3.72-5.81,8.07-7.54,13.06-1.73,4.99-2.6,10.35-2.6,16.1Z"/>
    </g>
  </g>
</svg>