<?xml version="1.0" encoding="utf-8"?>
<!-- Generator: Adobe Illustrator 24.3.0, SVG Export Plug-In . SVG Version: 6.00 Build 0)  -->
<svg version="1.1" id="Layer_2_1_" xmlns="http://www.w3.org/2000/svg" xmlns:xlink="http://www.w3.org/1999/xlink" x="0px" y="0px"
	 viewBox="0 0 940 215.2" style="enable-background:new 0 0 940 215.2;" xml:space="preserve">
<style type="text/css">
	.st0{fill:#FFFFFF;}
</style>
<path class="st0" d="M111.3,179c4.3-3.4,6.8-8.5,6.7-14c0-9.4-6.9-17.1-15.5-17.1H83.4c0,0,0,0,0,0.1v66.1v0.1h20.5
	c9.2,0,16.8-8.3,16.8-18.5C120.8,188.8,117.2,182.4,111.3,179z M87.8,152.9h14.7c6.1,0,11,5.4,11,12.1s-4.9,12.1-11,12.1H87.8V152.9
	z M103.9,209.2H87.8v-27.1h16.1c6.8,0,12.3,6.1,12.3,13.6S110.7,209.2,103.9,209.2L103.9,209.2z"/>
<path class="st0" d="M163,147.9L163,147.9l-17.6,32.5l-17.7-32.5l0,0h-5.1l0,0c0,0,0,0,0,0.1l20.2,37.3l0.4,0.7v28
	c0,0,0,0.1,0.1,0.1h4.4h0.1l0,0v-28l0.4-0.7l20.1-37.3c0,0,0,0,0-0.1l0,0L163,147.9z"/>
<path class="st0" d="M250.8,156.7c-2.6-3-5.8-5.4-9.4-7.1c-7.9-3.5-16.9-3.5-24.8,0c-3.6,1.7-6.8,4.1-9.4,7.1
	c-2.7,3.2-4.7,6.8-5.9,10.8c-2.7,8.8-2.7,18.2,0,27c1.3,3.9,3.3,7.6,5.9,10.8c2.6,3,5.8,5.5,9.4,7.1c7.9,3.5,16.9,3.5,24.8,0
	c3.6-1.7,6.8-4.1,9.4-7.1c2.7-3.2,4.7-6.8,6-10.8c2.7-8.8,2.7-18.2,0-27C255.5,163.5,253.5,159.9,250.8,156.7z M253.6,193
	c-1.1,3.5-2.8,6.8-5.1,9.7c-2.2,2.8-5.1,5-8.3,6.6c-7.2,3.2-15.4,3.2-22.5,0c-3.2-1.5-6-3.8-8.3-6.6c-2.3-2.9-4-6.2-5.1-9.7
	c-2.3-7.8-2.3-16.2,0-24c1.1-3.5,2.8-6.8,5.1-9.7c2.2-2.8,5.1-5,8.3-6.6c7.2-3.2,15.4-3.2,22.5,0c3.2,1.5,6,3.8,8.3,6.6
	c2.3,2.9,4,6.2,5.1,9.7C256,176.8,256,185.2,253.6,193z"/>
<path class="st0" d="M307.1,178.4c-2.3-1.9-4.9-3.2-7.7-3.9l-0.8-0.2c1.1-0.5,2.1-1.1,3-1.9c1.4-1.2,2.5-2.8,3.1-4.5
	c1.3-3.7,1.3-7.7,0-11.4c-0.6-1.7-1.7-3.3-3.1-4.5c-1.6-1.4-3.6-2.4-5.6-3c-2.7-0.8-5.5-1.2-8.4-1.1h-21.1V214h20.7
	c4.1,0.1,8.2-0.5,12.1-1.6c2.9-0.9,5.5-2.5,7.7-4.6c1.9-1.9,3.3-4.3,4.1-6.9c0.8-2.7,1.2-5.5,1.2-8.4c0-2.7-0.4-5.4-1.2-8
	C310.4,182.2,309,180.1,307.1,178.4z M287.2,151.2c2.2,0,4.5,0.2,6.7,0.6c1.7,0.3,3.3,1,4.7,1.9c1.2,0.9,2.2,2,2.8,3.4
	c1.2,3.2,1.2,6.8,0,10c-0.6,1.4-1.6,2.5-2.8,3.4c-1.4,1-3,1.6-4.7,1.9c-2.2,0.4-4.4,0.6-6.6,0.6H270v-21.9h17.2V151.2z M307.8,199.9
	c-0.8,2.2-2,4.1-3.7,5.7c-1.9,1.7-4.2,3-6.7,3.8c-3.3,1-6.7,1.4-10.1,1.4H270v-34.3h17.3c3.4-0.1,6.8,0.3,10.1,1.1
	c2.4,0.6,4.7,1.6,6.7,3.2c1.7,1.3,3,3.1,3.7,5.1c0.8,2.2,1.2,4.5,1.2,6.9C309,195.2,308.6,197.6,307.8,199.9L307.8,199.9z"/>
<polygon class="st0" points="320.2,147.9 320.2,214.1 323.6,214.1 361.5,214.1 361.5,210.8 323.6,210.8 323.6,182.4 355,182.4 
	355,179.1 323.6,179.1 323.6,151.2 361.5,151.2 361.5,147.9 323.6,147.9 "/>
<path class="st0" d="M400.6,187.3c2.8-0.8,5.4-2.3,7.5-4.2c1.9-1.8,3.4-4,4.2-6.5c1.8-5.4,1.8-11.3,0-16.7c-0.9-2.5-2.3-4.7-4.2-6.4
	c-2.2-1.9-4.7-3.3-7.5-4.1c-3.6-1.1-7.4-1.6-11.2-1.5h-20V214h3.4v-25.2h16.6c1.7,0,3.3-0.1,4.8-0.2l16.1,25.5h4.2L398,188
	C398.9,187.8,399.7,187.6,400.6,187.3z M389.3,185.4h-16.5v-34.2h16.6c3.1-0.1,6.3,0.3,9.3,1.1c2.4,0.6,4.6,1.8,6.5,3.3
	c1.7,1.4,3,3.3,3.8,5.3c0.9,2.3,1.3,4.8,1.2,7.3c0,2.5-0.4,5-1.2,7.4c-0.8,2.1-2.1,4-3.9,5.4c-1.9,1.5-4.2,2.7-6.5,3.3
	C395.6,185.1,392.4,185.5,389.3,185.4z"/>
<path class="st0" d="M470.1,156.7c-2.6-3-5.8-5.4-9.4-7.1c-7.9-3.5-16.9-3.5-24.8,0c-3.6,1.7-6.8,4.1-9.4,7.1
	c-2.7,3.2-4.7,6.8-6,10.8c-2.7,8.8-2.7,18.2,0,27c1.3,3.9,3.3,7.6,6,10.8c2.6,3,5.8,5.5,9.4,7.1c7.9,3.5,16.9,3.5,24.8,0
	c3.6-1.7,6.8-4.1,9.4-7.1c2.7-3.2,4.7-6.8,6-10.8c2.7-8.8,2.7-18.2,0-27C474.8,163.5,472.8,159.9,470.1,156.7z M473,193
	c-1.1,3.5-2.8,6.8-5.1,9.7c-2.2,2.8-5.1,5-8.3,6.6c-7.2,3.2-15.4,3.2-22.5,0c-3.2-1.5-6-3.8-8.3-6.6c-2.3-2.9-4-6.2-5.1-9.7
	c-2.3-7.8-2.3-16.2,0-24c1.1-3.5,2.8-6.8,5.1-9.7c2.2-2.8,5.1-5,8.3-6.6c7.2-3.2,15.4-3.2,22.5,0c3.2,1.5,6,3.8,8.3,6.6
	c2.3,2.9,4,6.2,5.1,9.7C475.3,176.8,475.3,185.2,473,193z"/>
<rect x="485.8" y="147.9" class="st0" width="3.4" height="66.2"/>
<path class="st0" d="M556,189.1c2.8-0.9,5.4-2.5,7.5-4.5c1.9-1.9,3.4-4.2,4.2-6.8c1.8-5.5,1.8-11.5,0-17c-0.9-2.6-2.3-4.9-4.2-6.8
	c-2.1-2-4.7-3.6-7.5-4.5c-3.6-1.2-7.4-1.7-11.2-1.6h-21.5V214h7.4v-23.3h14.2c0.8,0,1.7,0,2.5-0.1l14.8,23.4h8.7l-15.7-24.7
	L556,189.1z M544.7,183h-14.1v-27.4h14.2c2.6-0.1,5.3,0.3,7.8,0.9c1.9,0.5,3.7,1.5,5.2,2.7c1.3,1.2,2.3,2.7,2.9,4.4
	c1.2,3.7,1.2,7.7,0,11.4c-0.6,1.7-1.6,3.1-2.9,4.3c-1.5,1.3-3.3,2.2-5.2,2.7C550,182.7,547.4,183.1,544.7,183L544.7,183z"/>
<polygon class="st0" points="582.9,147.9 577.3,147.9 577.3,214.1 582.9,214.1 584.6,214.1 620.8,214.1 620.8,206.6 584.6,206.6 
	584.6,184.5 614.2,184.5 614.2,177 584.6,177 584.6,155.4 620.8,155.4 620.8,147.9 584.6,147.9 "/>
<path class="st0" d="M664.5,147.9h-8.2l-29.7,66.2h8.2l9.7-21.5h32l9.7,21.5h8.2L664.7,148L664.5,147.9z M647.8,185l12.6-28.1
	L673,185H647.8z"/>
<polygon class="st0" points="707.3,147.9 699.9,147.9 699.9,214.1 705.6,214.1 707.3,214.1 743.8,214.1 743.8,206.6 707.3,206.6 "/>
<polygon class="st0" points="755.1,147.9 729.7,147.9 729.7,155.4 755.1,155.4 755.1,214.1 762.5,214.1 762.5,155.4 787.9,155.4 
	787.9,147.9 762.5,147.9 "/>
<polygon class="st0" points="861.4,147.9 851.7,147.9 827.5,176.8 803.2,147.9 793.6,147.9 823.8,184 823.8,214.1 831.2,214.1 
	831.2,184 "/>
<path class="st0" d="M1,2.5h26.7c8.7,0,16.1,1.2,22.3,3.7c6,2.2,11.3,5.8,15.6,10.4c4.1,4.6,7.2,10.1,9,16c2,6.7,3,13.6,2.9,20.5
	c0.1,6.9-0.9,13.8-2.9,20.5c-1.8,6-4.9,11.4-9,16.1c-4.3,4.6-9.6,8.2-15.5,10.4c-6.2,2.5-13.7,3.7-22.3,3.7H1V2.5z M28,92.2
	c5.9,0.1,11.8-0.8,17.4-2.8c4.5-1.6,8.6-4.3,11.9-7.8c3.2-3.6,5.5-7.8,6.8-12.4c1.5-5.2,2.2-10.7,2.2-16.1
	c0.1-5.5-0.7-10.9-2.2-16.1c-1.3-4.5-3.6-8.7-6.8-12.3c-3.2-3.5-7.3-6.3-11.8-7.9c-5.6-2-11.4-2.9-17.3-2.8H12.3v78.1H28V92.2z"/>
<path class="st0" d="M89.2,2.5h66.7v11.4h-55.4V47h45.4v11.5h-45.4v33.9h55.4v11.4H89.2V2.5z"/>
<path class="st0" d="M166.8,28.4c0-3.7,0.8-7.3,2.4-10.6c1.6-3.4,4-6.3,6.9-8.7c3.2-2.6,6.9-4.6,10.9-5.9c4.8-1.5,9.7-2.3,14.7-2.2
	c3.3,0,6.6,0.3,9.9,0.7c3.5,0.5,6.9,1.5,10.2,3c3.4,1.6,6.6,3.7,9.3,6.2c3.1,3,5.6,6.5,7.2,10.5l-9.7,6.2
	c-2.2-4.7-5.7-8.6-10.2-11.2c-4.3-2.5-9.9-3.7-16.7-3.7c-7.5,0-13.3,1.4-17.4,4.1c-4,2.5-6.3,6.9-6.2,11.6c-0.1,2.9,0.8,5.7,2.8,7.9
	c2,2.1,4.5,3.7,7.2,4.7c3.3,1.2,6.7,2.2,10.2,2.8c3.8,0.7,7.7,1.4,11.7,2.2s7.9,1.7,11.7,2.9c3.7,1.1,7.1,2.7,10.2,4.9
	c3,2.2,5.5,5,7.2,8.3c1.8,3.4,2.8,7.8,2.8,13.1c0,9.2-3.1,16.5-9.4,21.9s-15.8,8.2-28.4,8.2c-5.6,0-11.2-0.7-16.6-2.3
	c-4.8-1.4-9.4-3.7-13.3-6.9c-3.8-3.1-6.8-7-8.7-11.4c-2.1-5-3.1-10.4-2.9-15.8h11.3c0.1,3.3,0.7,6.6,1.9,9.8c1.2,3,3.1,5.7,5.5,7.9
	c2.7,2.4,5.9,4.1,9.4,5.2c4.4,1.3,8.9,2,13.5,1.9c3.4,0,6.8-0.3,10.1-1c3-0.6,5.9-1.7,8.5-3.3c2.4-1.4,4.4-3.4,5.8-5.7
	c1.5-2.5,2.2-5.5,2.2-8.4c0.1-3.2-0.8-6.4-2.8-9c-1.9-2.3-4.4-4.2-7.2-5.3c-3.3-1.4-6.7-2.4-10.2-3c-3.8-0.7-7.8-1.5-11.7-2.2
	c-4-0.8-7.9-1.7-11.7-2.8c-3.6-0.9-7.1-2.4-10.2-4.5c-3-2-5.4-4.6-7.2-7.7C167.7,37.5,166.8,33.4,166.8,28.4z"/>
<path class="st0" d="M253.6,2.5h11.3v101.3h-11.3L253.6,2.5L253.6,2.5z"/>
<path class="st0" d="M287.9,53.1c-0.1,5.5,0.8,11,2.4,16.3c1.5,4.7,3.8,9,7,12.8c3,3.6,6.8,6.4,11,8.3c4.6,2,9.6,3.1,14.6,3
	c3.6,0.1,7.3-0.4,10.8-1.4c2.9-0.8,5.6-2,8.1-3.6c2.2-1.4,4.1-3.1,5.6-5.1c1.4-1.8,2.5-3.8,3.3-5.9V62.1H326V50.7h35.9v30.5
	c-1.3,3.1-2.9,6.1-4.9,8.8c-2.2,3-4.9,5.6-8,7.8c-3.4,2.4-7.3,4.2-11.3,5.4c-4.8,1.4-9.8,2.1-14.9,2c-6.6,0.1-13.1-1.2-19.1-3.8
	c-5.6-2.5-10.6-6.1-14.6-10.7c-4.2-4.8-7.3-10.4-9.3-16.5c-2.2-6.8-3.3-13.9-3.3-21c-0.1-7.2,1-14.3,3.3-21.1c2-6,5.2-11.6,9.3-16.4
	c4-4.6,9-8.2,14.6-10.7c6-2.6,12.5-3.9,19.1-3.9c4,0,7.9,0.4,11.8,1.2c3.3,0.7,6.4,1.9,9.4,3.4c2.7,1.4,5.1,3.1,7.3,5.1
	c2.1,1.9,4,4.1,5.6,6.5l-7,8.8c-2.8-4-6.4-7.4-10.7-9.8c-4.3-2.5-9.8-3.7-16.5-3.7c-5-0.1-10,0.9-14.6,3c-4.2,2-8,4.8-11,8.4
	c-3.1,3.8-5.5,8.1-7,12.8C288.6,42.1,287.8,47.6,287.9,53.1z"/>
<path class="st0" d="M442.7,103.8l-57.8-82v82h-11.3V2.5h11.3l57.8,82v-82H454v101.3H442.7z"/>
<path class="st0" d="M478.7,27.8c0-3.6,0.7-7.2,2.2-10.6c1.4-3.3,3.6-6.2,6.4-8.5c3.1-2.6,6.6-4.5,10.5-5.7
	c4.7-1.5,9.6-2.2,14.6-2.1c3.6,0,7.2,0.3,10.8,1c3.5,0.7,6.8,1.8,10,3.4s6.1,3.8,8.7,6.3c2.8,2.8,5.2,6.1,7,9.7l-4.6,2.9
	c-2.7-5.5-6.9-10.1-12.1-13.3C526.9,7.6,520.3,6,512.3,6c-4.4-0.1-8.8,0.5-13,1.9c-3.2,1.1-6.2,2.8-8.8,5c-2.2,1.9-3.9,4.3-5,7
	c-1,2.5-1.6,5.3-1.6,8c0,4.1,1,7.4,2.9,9.8c2,2.4,4.7,4.4,7.6,5.6c3.4,1.4,7.1,2.5,10.8,3c4,0.6,8.1,1.3,12.4,1.9
	c4.3,0.6,8.4,1.4,12.5,2.3c3.8,0.9,7.4,2.4,10.8,4.4c3.1,2,5.7,4.7,7.6,7.9c1.9,3.3,2.9,7.6,2.9,13c0,9.2-2.9,16.4-8.8,21.6
	c-5.9,5.2-15.1,7.8-27.8,7.8c-5.5,0.1-11.1-0.7-16.4-2.3c-4.7-1.4-9.1-3.7-12.9-6.9c-3.6-3.1-6.5-7-8.3-11.4c-2-5-2.9-10.4-2.8-15.8
	h5.2c0,4.3,0.8,8.6,2.3,12.7c1.4,3.7,3.6,7.1,6.5,9.9c3.1,2.9,6.8,5.2,10.9,6.5c4.9,1.6,10.1,2.4,15.3,2.3c5,0.1,10-0.5,14.8-1.8
	c3.6-1,6.9-2.7,9.7-5.1c2.4-2.1,4.2-4.8,5.2-7.7c1.1-3.1,1.6-6.4,1.6-9.7c0-4.5-1-8.2-2.9-10.8c-2-2.7-4.6-4.9-7.6-6.4
	c-3.4-1.6-7-2.8-10.8-3.4c-4-0.7-8.1-1.4-12.4-2c-4.3-0.6-8.4-1.3-12.3-2.2c-3.8-0.7-7.4-2-10.8-3.9c-3.1-1.7-5.7-4.2-7.6-7.2
	C479.7,36.8,478.7,32.8,478.7,27.8z"/>
<path class="st0" d="M557.6,2.3h86.6v5.1h-40.8v96.2h-5.2V7.4h-40.6V2.3z"/>
<path class="st0" d="M694.8,100c5.3,0.1,10.5-0.5,15.6-1.8c4.1-1.1,7.9-3.2,10.8-6.3c3-3.4,5.2-7.5,6.2-11.9
	c1.5-6.1,2.1-12.3,2-18.5V2.3h5.2v59.2c0,8.4-0.8,15.4-2.4,21c-1.3,5-3.8,9.6-7.4,13.4c-3.5,3.4-7.8,5.9-12.5,7.1
	c-11.5,2.8-23.6,2.8-35.1,0c-4.7-1.2-9-3.7-12.5-7.1c-3.6-3.8-6.1-8.4-7.5-13.4c-1.7-5.6-2.5-12.6-2.5-21V2.3h5.2v59.2
	c-0.2,6.2,0.5,12.5,2,18.5c1.1,4.4,3.2,8.5,6.2,11.9c2.9,3.1,6.7,5.3,10.8,6.3C684.3,99.5,689.5,100.1,694.8,100z"/>
<path class="st0" d="M746,2.3h23.8c8.6,0,15.9,1.3,22.2,3.8c5.8,2.3,11.1,5.9,15.3,10.6c4,4.7,7.1,10.1,8.8,16.1
	c2,6.5,3,13.3,2.9,20.1c0.1,6.8-0.9,13.6-2.9,20.1c-1.8,5.9-4.8,11.4-8.8,16.1c-4.2,4.7-9.4,8.3-15.3,10.6
	c-6.2,2.6-13.6,3.8-22.2,3.8H746V2.3z M770.1,98.6c6.5,0.1,13-0.9,19.2-3.1c5.2-1.9,9.9-5,13.6-9c3.7-4.2,6.5-9.1,8-14.4
	c1.9-6.2,2.8-12.6,2.7-19c0.1-6.4-0.8-12.8-2.7-19c-1.6-5.3-4.4-10.2-8.1-14.3c-3.8-4-8.4-7.2-13.6-9.1c-6.1-2.2-12.6-3.3-19.1-3.2
	h-19v91.2L770.1,98.6L770.1,98.6z"/>
<path class="st0" d="M830.7,2.3h5.3v101.3h-5.2L830.7,2.3z"/>
<path class="st0" d="M847.8,53c-0.1-7,1-14,3.2-20.7c1.9-6,5-11.6,9-16.5c3.9-4.6,8.9-8.4,14.4-10.9c12.2-5.3,26-5.3,38.1,0
	c5.5,2.6,10.4,6.3,14.3,10.9c4.1,4.9,7.1,10.5,9,16.5C938,39,939.1,46,939,53c0.1,7-1,14-3.1,20.7c-1.9,6-5,11.6-9,16.5
	c-3.9,4.6-8.8,8.4-14.3,10.9c-12.2,5.3-26,5.3-38.1,0c-5.5-2.6-10.4-6.3-14.3-10.9c-4-4.9-7.1-10.5-9-16.5
	C848.8,67,847.7,60,847.8,53z M853,53c0,6.2,0.9,12.4,2.7,18.4c1.6,5.4,4.3,10.5,7.8,14.9c3.4,4.3,7.7,7.7,12.7,10.1
	c11,4.9,23.5,4.9,34.5,0c4.9-2.4,9.2-5.8,12.6-10.1c3.5-4.4,6.2-9.5,7.8-14.9c1.8-5.9,2.8-12.1,2.7-18.4c0-6.2-0.9-12.4-2.7-18.4
	c-1.6-5.4-4.3-10.5-7.8-14.9c-3.4-4.3-7.7-7.7-12.6-10.1c-11-4.9-23.5-4.9-34.5,0c-4.9,2.4-9.2,5.8-12.7,10.1
	c-3.5,4.4-6.2,9.5-7.8,14.9C853.9,40.6,853,46.8,853,53z"/>
</svg>
